<?xml version="1.0" encoding="iso-8859-1"?>
<!-- Uploaded to: SVG Repo, www.svgrepo.com, Generator: SVG Repo Mixer Tools -->
<svg fill="#000000" height="800px" width="800px" version="1.1" id="Layer_1" xmlns="http://www.w3.org/2000/svg" xmlns:xlink="http://www.w3.org/1999/xlink" 
	 viewBox="0 0 512 512" xml:space="preserve">
<g transform="translate(1 1)">
	<g>
		<g>
			<path d="M442.043,153.417c-6.999-26.128-16.727-52.669-29.176-80V24.6c0-14.507-11.093-25.6-25.6-25.6H122.733
				c-14.507,0-25.6,11.093-25.6,25.6v49.493c-57.173,119.467-57.173,227.84,0,361.813V485.4c0,14.507,11.093,25.6,25.6,25.6h264.533
				c14.507,0,25.6-11.093,25.6-25.6v-49.493C457.612,335.063,467.335,246.762,442.043,153.417z M96.445,386.779
				c-0.268-0.784-0.534-1.567-0.798-2.349c-0.42-1.251-0.835-2.5-1.245-3.747c-0.154-0.469-0.308-0.938-0.46-1.406
				c-0.471-1.447-0.936-2.892-1.392-4.334c-0.074-0.233-0.147-0.466-0.22-0.698c-4.314-13.7-7.949-27.14-10.907-40.375
				c-0.052-0.231-0.104-0.462-0.155-0.693c-0.306-1.379-0.602-2.756-0.893-4.13c-0.088-0.418-0.177-0.836-0.264-1.254
				c-0.261-1.25-0.515-2.498-0.764-3.745c-0.11-0.551-0.218-1.102-0.326-1.653c-0.223-1.141-0.442-2.28-0.654-3.418
				c-0.127-0.68-0.25-1.36-0.373-2.039c-0.186-1.025-0.372-2.05-0.55-3.073c-0.146-0.842-0.286-1.683-0.427-2.524
				c-0.146-0.872-0.295-1.745-0.435-2.616c-0.19-1.182-0.37-2.362-0.548-3.541c-0.082-0.538-0.168-1.076-0.248-1.614
				c-0.524-3.559-0.998-7.106-1.42-10.642c-0.033-0.275-0.062-0.549-0.094-0.823c-0.175-1.493-0.343-2.985-0.5-4.474
				c-0.038-0.364-0.073-0.728-0.111-1.092c-0.144-1.402-0.281-2.803-0.408-4.203c-0.036-0.396-0.07-0.792-0.105-1.187
				c-0.12-1.372-0.234-2.742-0.339-4.111c-0.031-0.404-0.061-0.808-0.091-1.211c-0.1-1.362-0.192-2.722-0.276-4.081
				c-0.025-0.402-0.05-0.805-0.074-1.207c-0.081-1.373-0.152-2.745-0.217-4.116c-0.018-0.38-0.038-0.76-0.054-1.139
				c-0.063-1.415-0.114-2.829-0.16-4.242c-0.011-0.332-0.024-0.664-0.034-0.995c-0.045-1.524-0.078-3.046-0.104-4.568
				c-0.004-0.219-0.01-0.438-0.014-0.657c-0.026-1.739-0.039-3.476-0.039-5.211c0-0.354,0.006-0.708,0.007-1.062
				c0.004-1.302,0.011-2.603,0.03-3.902c0.014-1.006,0.039-2.011,0.062-3.017c0.014-0.628,0.026-1.255,0.043-1.882
				c0.035-1.218,0.079-2.436,0.126-3.653c0.015-0.384,0.028-0.769,0.044-1.153c0.059-1.391,0.126-2.782,0.202-4.172
				c0.009-0.168,0.018-0.337,0.027-0.505c2.494-44.646,13.619-88.501,33.378-133.984c45.223,108.364,45.226,204.784,0.011,315.705
				c-2.246-5.746-4.382-11.445-6.405-17.099c-0.116-0.325-0.229-0.648-0.344-0.972c-0.509-1.43-1.01-2.856-1.505-4.28
				C97.094,388.681,96.769,387.729,96.445,386.779z M119.048,84.333h272.059c-50.804,112.879-50.626,216.351,0.532,341.333H118.184
				C169.463,305.148,169.751,201.678,119.048,84.333z M438.238,255.391c-0.005,0.925-0.009,1.851-0.021,2.776
				c-0.019,1.343-0.048,2.686-0.083,4.029c-0.006,0.26-0.011,0.52-0.018,0.781c-0.043,1.565-0.097,3.13-0.161,4.696
				c0,0.007,0,0.014-0.001,0.021c-1.922,46.769-13.129,94.055-33.622,144.32c-45.194-115.968-45.225-211.487-0.098-315.505
				c22.662,54.086,34.002,105.222,34.017,156.791C438.252,253.996,438.243,254.693,438.238,255.391z M114.2,24.6
				c0-5.12,4.267-8.533,8.533-8.533h264.533c5.12,0,8.533,3.413,8.533,8.533v42.667H114.2V24.6z M395.8,485.4
				c0,5.12-3.413,8.533-8.533,8.533H122.733c-5.12,0-8.533-3.413-8.533-8.533v-42.667h281.6V485.4z"/>
			<path d="M322.413,186.733c-2.244-0.748-4.324-0.676-6.097,0h-11.823c-67.413,0-122.027,54.613-122.027,122.027v14.507
				c0,4.82,3.026,8.125,7.653,8.496c0.294,0.035,0.587,0.037,0.881,0.037h14.507c67.413,0,122.027-54.613,122.027-122.027v-11.947
				C329.24,192.707,326.68,188.44,322.413,186.733z M304.493,203.8h2.531c-9.993,24.875-24.677,41.574-57.997,51.2
				c-22.305,6.083-35.741,13.325-44.894,22.911C217.289,234.97,257.206,203.8,304.493,203.8z M205.507,314.733h-2.335
				c8.378-24.076,16.473-33.799,50.122-43.52c24.802-6.889,41.19-17.492,52.774-31.266
				C293.123,283.236,253.041,314.733,205.507,314.733z"/>
		</g>
	</g>
</g>
</svg>